<svg xmlns="http://www.w3.org/2000/svg" width="1440" height="1024" viewBox="0 0 1440 1024"><defs><linearGradient id="accent"><stop stop-color="#ff3868"/><stop offset="1" stop-color="#7c4dff"/></linearGradient></defs><rect width="1440" height="1024" fill="#07101f"/><rect x="0" y="0" width="238" height="1024" rx="0" fill="#091426" stroke="none"/>
  <path d="M32 42 C43 24 58 24 69 42 C80 60 95 60 106 42 C95 66 80 72 68 54 C56 36 43 36 32 54" fill="none" stroke="url(#accent)" stroke-width="6" stroke-linecap="round"/>
  <text x="121" y="48" font-family="Inter,Segoe UI,Arial,sans-serif" font-size="18" font-weight="760" fill="#f4f7fb" text-anchor="start">CLOUDIT</text><text x="121" y="66" font-family="Inter,Segoe UI,Arial,sans-serif" font-size="9" font-weight="700" fill="#91a1b9" text-anchor="start">OPERATIONS</text>
  <rect x="26" y="110" width="28" height="28" rx="8" fill="#122139" stroke="none"/><text x="40" y="129" font-family="Inter,Segoe UI,Arial,sans-serif" font-size="11" font-weight="700" fill="#91a1b9" text-anchor="middle">OV</text><text x="68" y="129" font-family="Inter,Segoe UI,Arial,sans-serif" font-size="13" font-weight="500" fill="#91a1b9" text-anchor="start">Overview</text><rect x="26" y="171" width="28" height="28" rx="8" fill="#122139" stroke="none"/><text x="40" y="190" font-family="Inter,Segoe UI,Arial,sans-serif" font-size="11" font-weight="700" fill="#91a1b9" text-anchor="middle">CL</text><text x="68" y="190" font-family="Inter,Segoe UI,Arial,sans-serif" font-size="13" font-weight="500" fill="#91a1b9" text-anchor="start">Clients</text><rect x="26" y="232" width="28" height="28" rx="8" fill="#122139" stroke="none"/><text x="40" y="251" font-family="Inter,Segoe UI,Arial,sans-serif" font-size="11" font-weight="700" fill="#91a1b9" text-anchor="middle">WF</text><text x="68" y="251" font-family="Inter,Segoe UI,Arial,sans-serif" font-size="13" font-weight="500" fill="#91a1b9" text-anchor="start">Workflows</text><rect x="26" y="293" width="28" height="28" rx="8" fill="#122139" stroke="none"/><text x="40" y="312" font-family="Inter,Segoe UI,Arial,sans-serif" font-size="11" font-weight="700" fill="#91a1b9" text-anchor="middle">IN</text><text x="68" y="312" font-family="Inter,Segoe UI,Arial,sans-serif" font-size="13" font-weight="500" fill="#91a1b9" text-anchor="start">Infrastructure</text><rect x="26" y="354" width="28" height="28" rx="8" fill="#122139" stroke="none"/><text x="40" y="373" font-family="Inter,Segoe UI,Arial,sans-serif" font-size="11" font-weight="700" fill="#91a1b9" text-anchor="middle">VE</text><text x="68" y="373" font-family="Inter,Segoe UI,Arial,sans-serif" font-size="13" font-weight="500" fill="#91a1b9" text-anchor="start">Vercel</text><rect x="26" y="415" width="28" height="28" rx="8" fill="#122139" stroke="none"/><text x="40" y="434" font-family="Inter,Segoe UI,Arial,sans-serif" font-size="11" font-weight="700" fill="#91a1b9" text-anchor="middle">IK</text><text x="68" y="434" font-family="Inter,Segoe UI,Arial,sans-serif" font-size="13" font-weight="500" fill="#91a1b9" text-anchor="start">ImageKit</text><rect x="26" y="476" width="28" height="28" rx="8" fill="#122139" stroke="none"/><text x="40" y="495" font-family="Inter,Segoe UI,Arial,sans-serif" font-size="11" font-weight="700" fill="#91a1b9" text-anchor="middle">BK</text><text x="68" y="495" font-family="Inter,Segoe UI,Arial,sans-serif" font-size="13" font-weight="500" fill="#91a1b9" text-anchor="start">Backups</text><rect x="26" y="537" width="28" height="28" rx="8" fill="#122139" stroke="none"/><text x="40" y="556" font-family="Inter,Segoe UI,Arial,sans-serif" font-size="11" font-weight="700" fill="#91a1b9" text-anchor="middle">RP</text><text x="68" y="556" font-family="Inter,Segoe UI,Arial,sans-serif" font-size="13" font-weight="500" fill="#91a1b9" text-anchor="start">Reports</text><rect x="26" y="598" width="28" height="28" rx="8" fill="#122139" stroke="none"/><text x="40" y="617" font-family="Inter,Segoe UI,Arial,sans-serif" font-size="11" font-weight="700" fill="#91a1b9" text-anchor="middle">IC</text><text x="68" y="617" font-family="Inter,Segoe UI,Arial,sans-serif" font-size="13" font-weight="500" fill="#91a1b9" text-anchor="start">Incidents</text><rect x="14" y="650" width="210" height="46" rx="11" fill="#172641" stroke="none"/><rect x="26" y="659" width="28" height="28" rx="8" fill="#122139" stroke="none"/><text x="40" y="678" font-family="Inter,Segoe UI,Arial,sans-serif" font-size="11" font-weight="700" fill="#ffffff" text-anchor="middle">AU</text><text x="68" y="678" font-family="Inter,Segoe UI,Arial,sans-serif" font-size="13" font-weight="650" fill="#ffffff" text-anchor="start">Audit log</text><rect x="14" y="650" width="3" height="46" rx="2" fill="url(#accent)"/><rect x="26" y="720" width="28" height="28" rx="8" fill="#122139" stroke="none"/><text x="40" y="739" font-family="Inter,Segoe UI,Arial,sans-serif" font-size="11" font-weight="700" fill="#91a1b9" text-anchor="middle">ST</text><text x="68" y="739" font-family="Inter,Segoe UI,Arial,sans-serif" font-size="13" font-weight="500" fill="#91a1b9" text-anchor="start">Settings</text>
  <rect x="18" y="936" width="202" height="66" rx="14" fill="#0d192b" stroke="#243551"/><circle cx="42" cy="960" r="5" fill="#35d39a"/><text x="56" y="960" font-family="Inter,Segoe UI,Arial,sans-serif" font-size="12" font-weight="650" fill="#f4f7fb" text-anchor="start">Nadun</text><text x="56" y="978" font-family="Inter,Segoe UI,Arial,sans-serif" font-size="10" font-weight="500" fill="#91a1b9" text-anchor="start">Cloud owner</text><text x="204" y="970" font-family="Inter,Segoe UI,Arial,sans-serif" font-size="18" font-weight="700" fill="#91a1b9" text-anchor="end">⋯</text><text x="278" y="66" font-family="Inter,Segoe UI,Arial,sans-serif" font-size="28" font-weight="760" fill="#f4f7fb" text-anchor="start">Audit log</text><text x="278" y="91" font-family="Inter,Segoe UI,Arial,sans-serif" font-size="12" font-weight="500" fill="#91a1b9" text-anchor="start">Append-only administrative and report history</text><rect x="1260" y="42" width="88" height="26" rx="13" fill="#ffb84d20" stroke="#ffb84d66"/><circle cx="1273" cy="55" r="4" fill="#ffb84d"/><text x="1284" y="60" font-family="Inter,Segoe UI,Arial,sans-serif" font-size="11" font-weight="700" fill="#ffb84d" text-anchor="start">AMBER</text><text x="1368" y="96" font-family="Inter,Segoe UI,Arial,sans-serif" font-size="9" font-weight="500" fill="#62738d" text-anchor="end">Design data · illustrative</text><rect x="278" y="126" width="1116" height="54" rx="11" fill="#122139" stroke="none"/><circle cx="296" cy="153" r="5" fill="#35d39a"/><text x="310" y="148" font-family="Inter,Segoe UI,Arial,sans-serif" font-size="13" font-weight="620" fill="#f4f7fb" text-anchor="start">Report viewed</text><text x="310" y="165" font-family="Inter,Segoe UI,Arial,sans-serif" font-size="11" font-weight="500" fill="#91a1b9" text-anchor="start">Owner · report September 2026 · success</text><text x="1378" y="157" font-family="Inter,Segoe UI,Arial,sans-serif" font-size="11" font-weight="650" fill="#35d39a" text-anchor="end">10 Sep · 10:04</text><rect x="278" y="190" width="1116" height="54" rx="11" fill="#122139" stroke="none"/><circle cx="296" cy="217" r="5" fill="#35d39a"/><text x="310" y="212" font-family="Inter,Segoe UI,Arial,sans-serif" font-size="13" font-weight="620" fill="#f4f7fb" text-anchor="start">Publisher rotated</text><text x="310" y="229" font-family="Inter,Segoe UI,Arial,sans-serif" font-size="11" font-weight="500" fill="#91a1b9" text-anchor="start">Owner · Cavetta production · success</text><text x="1378" y="221" font-family="Inter,Segoe UI,Arial,sans-serif" font-size="11" font-weight="650" fill="#35d39a" text-anchor="end">08 Sep · 16:22</text><rect x="278" y="254" width="1116" height="54" rx="11" fill="#122139" stroke="none"/><circle cx="296" cy="281" r="5" fill="#ffb84d"/><text x="310" y="276" font-family="Inter,Segoe UI,Arial,sans-serif" font-size="13" font-weight="620" fill="#f4f7fb" text-anchor="start">Command rejected</text><text x="310" y="293" font-family="Inter,Segoe UI,Arial,sans-serif" font-size="11" font-weight="500" fill="#91a1b9" text-anchor="start">System · stale version · no change</text><text x="1378" y="285" font-family="Inter,Segoe UI,Arial,sans-serif" font-size="11" font-weight="650" fill="#ffb84d" text-anchor="end">07 Sep · 11:41</text><rect x="278" y="336" width="1116" height="188" rx="16" fill="#0d192b" stroke="#243551"/><text x="298" y="367" font-family="Inter,Segoe UI,Arial,sans-serif" font-size="15" font-weight="650" fill="#f4f7fb" text-anchor="start">Audit privacy</text><text x="298" y="404" font-family="Inter,Segoe UI,Arial,sans-serif" font-size="12" font-weight="500" fill="#35d39a" text-anchor="start">✓ Append-only presentation</text><text x="298" y="433" font-family="Inter,Segoe UI,Arial,sans-serif" font-size="12" font-weight="500" fill="#35d39a" text-anchor="start">✓ Safe actor and target identifiers</text><text x="298" y="462" font-family="Inter,Segoe UI,Arial,sans-serif" font-size="12" font-weight="500" fill="#35d39a" text-anchor="start">✓ No payload, email, token or before/after values</text></svg>